HIERARCHY
ROOT joint_Root
{
	OFFSET 0.0 0.0 0.0
	CHANNELS 6 Xposition Yposition Zposition Zrotation Xrotation Yrotation 
	JOINT Hips
	{
		OFFSET -0.726466 93.3139 -2.00062
		CHANNELS 6 Xposition Yposition Zposition Zrotation Xrotation Yrotation 
		JOINT Spine
		{
			OFFSET 15.7357 0.0 0.0
			CHANNELS 6 Xposition Yposition Zposition Zrotation Xrotation Yrotation 
			JOINT Chest
			{
				OFFSET 8.98455 -0.406207 0.0
				CHANNELS 6 Xposition Yposition Zposition Zrotation Xrotation Yrotation 
				JOINT Neck
				{
					OFFSET 16.3773 0.0 0.0
					CHANNELS 6 Xposition Yposition Zposition Zrotation Xrotation Yrotation 
					JOINT Head
					{
						OFFSET 6.45672 0.0 0.0
						CHANNELS 6 Xposition Yposition Zposition Zrotation Xrotation Yrotation 
						End Site
						{
							OFFSET 0.0 0.0 0.0
						}
					}
				}
				JOINT Shoulder_L
				{
					OFFSET 12.9942 -0.242716 4.98039
					CHANNELS 6 Xposition Yposition Zposition Zrotation Xrotation Yrotation 
					JOINT UpperArm_L
					{
						OFFSET 5.34809 0.0 0.0
						CHANNELS 6 Xposition Yposition Zposition Zrotation Xrotation Yrotation 
						JOINT LowerArm_L
						{
							OFFSET 24.3286 1.87007e-05 0.0
							CHANNELS 6 Xposition Yposition Zposition Zrotation Xrotation Yrotation 
							JOINT Hand_L
							{
								OFFSET 22.2916 0.0 0.0
								CHANNELS 6 Xposition Yposition Zposition Zrotation Xrotation Yrotation 
								End Site
								{
									OFFSET 0.0 0.0 0.0
								}
							}
						}
					}
				}
				JOINT Shoulder_R
				{
					OFFSET 12.9945 -0.242716 -4.98039
					CHANNELS 6 Xposition Yposition Zposition Zrotation Xrotation Yrotation 
					JOINT UpperArm_R
					{
						OFFSET -5.34813 0.0 0.0
						CHANNELS 6 Xposition Yposition Zposition Zrotation Xrotation Yrotation 
						JOINT LowerArm_R
						{
							OFFSET -24.3289 0.000322201 0.0
							CHANNELS 6 Xposition Yposition Zposition Zrotation Xrotation Yrotation 
							JOINT Hand_R
							{
								OFFSET -22.2915 -0.000108084 0.0
								CHANNELS 6 Xposition Yposition Zposition Zrotation Xrotation Yrotation 
								End Site
								{
									OFFSET 0.0 0.0 0.0
								}
							}
						}
					}
				}
			}
		}
		JOINT UpperLeg_L
		{
			OFFSET -2.19248 -6.46944 0.0
			CHANNELS 6 Xposition Yposition Zposition Zrotation Xrotation Yrotation 
			JOINT LowerLeg_L
			{
				OFFSET 39.0811 0.0 -1.23785e-05
				CHANNELS 6 Xposition Yposition Zposition Zrotation Xrotation Yrotation 
				JOINT Foot_L
				{
					OFFSET 40.9854 0.0 -1.26872e-05
					CHANNELS 6 Xposition Yposition Zposition Zrotation Xrotation Yrotation 
					JOINT Toes_L
					{
						OFFSET 11.7543 0.0 0.0
						CHANNELS 6 Xposition Yposition Zposition Zrotation Xrotation Yrotation 
						End Site
						{
							OFFSET 0.0 0.0 0.0
						}
					}
				}
			}
		}
		JOINT UpperLeg_R
		{
			OFFSET -2.19251 6.46944 0.0
			CHANNELS 6 Xposition Yposition Zposition Zrotation Xrotation Yrotation 
			JOINT LowerLeg_R
			{
				OFFSET -39.0811 -0.00228153 -0.0401928
				CHANNELS 6 Xposition Yposition Zposition Zrotation Xrotation Yrotation 
				JOINT Foot_R
				{
					OFFSET -40.9854 0.0 0.0
					CHANNELS 6 Xposition Yposition Zposition Zrotation Xrotation Yrotation 
					JOINT Toes_R
					{
						OFFSET -11.7543 0.0 0.0
						CHANNELS 6 Xposition Yposition Zposition Zrotation Xrotation Yrotation 
						End Site
						{
							OFFSET 0.0 0.0 0.0
						}
					}
				}
			}
		}
	}
}
MOTION
Frames:	9
Frame Time:	0.0333333
0.000000 0.000000 0.000000 0.000000 0.000000 -0.000000 -0.837657 92.239000 -1.020500 87.760400 -0.221167 2.616920 15.735700 0.000005 -0.000001 88.499000 87.259000 -88.011100 8.984550 -0.406207 -0.000000 -2.285030 -0.186333 0.972084 16.377300 -0.000001 -0.000001 -3.210100 -3.890940 3.027450 6.456720 -0.000001 -0.000000 -7.699160 -3.256330 -0.223394 12.994200 -0.242716 4.980390 -83.494000 -12.609500 -62.417500 5.348090 -0.000007 -0.000001 -63.920600 -48.042400 -123.736000 24.328600 0.000019 0.000005 -3.200920 -2.246830 -54.969200 22.291600 -0.000001 0.000005 17.776300 5.618870 -12.542900 12.994500 -0.242716 -4.980390 94.559300 -9.552320 -64.334000 -5.348130 -0.000001 -0.000004 -65.004000 -43.991300 -134.039000 -24.328900 0.000322 -0.000009 -3.807950 -3.742520 -45.550600 -22.291500 -0.000108 -0.000004 19.624900 5.560500 -9.211800 -2.192480 -6.469440 -0.000000 -169.584000 -13.654500 -2.133340 39.081100 -0.000007 -0.000012 -0.155561 0.427707 19.987000 40.985400 -0.000006 -0.000013 -5.849040 2.939750 -63.759300 11.754300 -0.000000 0.000003 -0.000042 -0.000486 -16.596500 -2.192510 6.469440 -0.000001 175.097000 19.913500 179.170000 -39.081100 -0.002282 -0.040193 0.040311 -0.107214 19.034000 -40.985400 0.000008 0.000006 -0.447502 1.157670 -63.386000 -11.754300 -0.000006 -0.000006 -0.005886 -0.069795 -19.413600
0.000000 0.000000 0.000000 0.000000 0.000000 -0.000000 -0.847596 92.249400 -1.083280 87.777100 -0.225716 2.550640 15.735700 0.000005 -0.000001 88.840500 87.272600 -88.405300 8.984550 -0.406207 -0.000000 -2.311690 -0.148612 0.867345 16.377300 -0.000001 -0.000001 -3.425770 -3.841840 2.991840 6.456720 -0.000001 -0.000000 -7.721400 -3.236640 -0.139515 12.994200 -0.242716 4.980390 -83.547300 -12.415100 -62.252700 5.348090 -0.000007 -0.000001 -63.650200 -48.703900 -121.478000 24.328600 0.000019 0.000005 -3.390900 -2.492280 -53.725500 22.291600 -0.000001 0.000005 17.737400 5.615560 -12.320500 12.994500 -0.242716 -4.980390 94.406500 -9.196280 -64.257600 -5.348130 -0.000001 -0.000004 -64.322000 -44.726000 -131.250000 -24.328900 0.000322 -0.000009 -3.835340 -4.029980 -43.640100 -22.291500 -0.000108 -0.000004 19.429700 5.557400 -9.060320 -2.192480 -6.469440 -0.000000 -169.621000 -13.748800 -2.228090 39.081100 -0.000007 -0.000012 -0.153081 0.421867 19.944300 40.985400 -0.000006 -0.000013 -5.831780 2.981660 -63.680600 11.754300 -0.000000 0.000003 -0.000036 -0.000428 -16.594200 -2.192510 6.469440 -0.000001 175.127000 19.934200 179.086000 -39.081100 -0.002282 -0.040193 0.040973 -0.109575 18.962500 -40.985400 0.000008 0.000006 -0.364275 1.193570 -63.367800 -11.754300 -0.000006 -0.000006 -0.005659 -0.067705 -19.328300
0.000000 0.000000 0.000000 0.000000 0.000000 -0.000000 -0.853472 92.265200 -1.150940 87.759900 -0.198888 2.485310 15.735700 0.000005 -0.000001 89.113500 87.282600 -88.717800 8.984550 -0.406207 -0.000000 -2.331300 -0.118913 0.788973 16.377300 -0.000001 -0.000001 -3.696280 -3.779470 2.869440 6.456720 -0.000001 -0.000000 -7.641170 -3.308240 -0.045794 12.994200 -0.242716 4.980390 -83.709800 -12.028600 -62.124300 5.348090 -0.000007 -0.000001 -62.960500 -49.486600 -118.361000 24.328600 0.000019 0.000005 -3.468200 -2.708840 -52.053500 22.291600 -0.000001 0.000005 17.844300 5.614360 -12.241600 12.994500 -0.242716 -4.980390 94.103500 -8.536070 -64.204100 -5.348130 -0.000001 -0.000004 -63.366500 -45.501400 -127.763000 -24.328900 0.000322 -0.000009 -3.660660 -4.155330 -41.433600 -22.291500 -0.000108 -0.000004 19.339400 5.550650 -8.737090 -2.192480 -6.469440 -0.000000 -169.633000 -13.699400 -2.323470 39.081100 -0.000007 -0.000012 -0.152841 0.422769 19.876300 40.985400 -0.000006 -0.000013 -5.836160 2.941680 -63.595100 11.754300 -0.000000 0.000003 -0.000040 -0.000469 -16.595800 -2.192510 6.469440 -0.000001 175.182000 20.002300 178.989000 -39.081100 -0.002282 -0.040193 0.039179 -0.104631 18.916100 -40.985400 0.000008 0.000006 -0.478612 1.191810 -63.235600 -11.754300 -0.000006 -0.000006 -0.005751 -0.068558 -19.363100
0.000000 0.000000 0.000000 0.000000 0.000000 -0.000000 -0.875985 92.248900 -1.182160 87.739200 -0.201101 2.506090 15.735700 0.000005 -0.000001 89.131200 87.273000 -88.780300 8.984550 -0.406207 -0.000000 -2.312300 -0.113525 0.699424 16.377300 -0.000001 -0.000001 -3.827130 -3.675370 2.741690 6.456720 -0.000001 -0.000000 -7.558040 -3.267400 0.055621 12.994200 -0.242716 4.980390 -83.843600 -11.739800 -62.070500 5.348090 -0.000007 -0.000001 -61.394100 -50.602500 -113.742000 24.328600 0.000019 0.000005 -4.048730 -3.367590 -50.311300 22.291600 -0.000001 0.000005 18.103400 5.614970 -12.281700 12.994500 -0.242716 -4.980390 93.802000 -7.961480 -64.368300 -5.348130 -0.000001 -0.000004 -62.148400 -46.376200 -123.010000 -24.328900 0.000322 -0.000009 -3.545340 -4.278400 -39.700400 -22.291500 -0.000108 -0.000004 19.408300 5.544240 -8.437200 -2.192480 -6.469440 -0.000000 -169.595000 -13.730000 -2.408620 39.081100 -0.000007 -0.000012 -0.155200 0.425507 20.039200 40.985400 -0.000006 -0.000013 -5.834790 2.975720 -63.645300 11.754300 -0.000000 0.000003 -0.000047 -0.000533 -16.598300 -2.192510 6.469440 -0.000001 175.202000 20.138200 179.024000 -39.081100 -0.002282 -0.040193 0.040477 -0.108573 18.890800 -40.985400 0.000008 0.000006 -0.355743 1.307870 -63.369400 -11.754300 -0.000006 -0.000006 -0.005858 -0.069544 -19.403300
0.000000 0.000000 0.000000 0.000000 0.000000 -0.000000 -0.906812 92.256200 -1.217540 87.718200 -0.152557 2.495660 15.735700 0.000005 -0.000001 89.089000 87.270400 -88.763700 8.984550 -0.406207 -0.000000 -2.307110 -0.115356 0.648212 16.377300 -0.000001 -0.000001 -4.111050 -3.629560 2.635250 6.456720 -0.000001 -0.000000 -7.295920 -3.239300 0.088476 12.994200 -0.242716 4.980390 -84.037800 -11.431800 -62.213900 5.348090 -0.000007 -0.000001 -58.883600 -51.794300 -107.606000 24.328600 0.000019 0.000005 -4.130330 -3.649400 -48.606200 22.291600 -0.000001 0.000005 18.243200 5.613000 -12.152400 12.994500 -0.242716 -4.980390 93.532300 -7.399040 -64.389500 -5.348130 -0.000001 -0.000004 -60.456300 -47.133100 -117.261000 -24.328900 0.000322 -0.000009 -3.446640 -4.380110 -38.250400 -22.291500 -0.000108 -0.000004 19.681500 5.539540 -8.221720 -2.192480 -6.469440 -0.000000 -169.562000 -13.668300 -2.433540 39.081100 -0.000007 -0.000012 -0.155782 0.428210 19.991400 40.985400 -0.000006 -0.000013 -5.858300 2.967030 -63.589500 11.754300 -0.000000 0.000003 -0.000040 -0.000469 -16.595800 -2.192510 6.469440 -0.000001 175.249000 20.116100 179.016000 -39.081100 -0.002282 -0.040193 0.038892 -0.104210 18.845300 -40.985400 0.000008 0.000006 -0.473162 1.286160 -63.303600 -11.754300 -0.000006 -0.000006 -0.005934 -0.070238 -19.431600
0.000000 0.000000 0.000000 0.000000 0.000000 -0.000000 -0.928603 92.250000 -1.252490 87.690600 -0.162254 2.522380 15.735700 0.000005 -0.000001 89.755800 87.253100 -89.451400 8.984550 -0.406207 -0.000000 -2.272110 -0.050059 0.607697 16.377300 -0.000001 -0.000001 -4.252280 -3.597170 2.600170 6.456720 -0.000001 -0.000000 -7.421670 -3.280230 0.082417 12.994200 -0.242716 4.980390 -84.132100 -11.253400 -62.226500 5.348090 -0.000007 -0.000001 -56.457800 -52.259800 -100.705000 24.328600 0.000019 0.000005 -3.861760 -3.595030 -47.110600 22.291600 -0.000001 0.000005 18.138400 5.609390 -11.920000 12.994500 -0.242716 -4.980390 93.207600 -6.726290 -64.429900 -5.348130 -0.000001 -0.000004 -58.009100 -47.897000 -110.501000 -24.328900 0.000322 -0.000009 -3.313610 -4.420960 -36.901300 -22.291500 -0.000108 -0.000004 19.910800 5.533180 -7.935770 -2.192480 -6.469440 -0.000000 -169.530000 -13.622300 -2.475230 39.081100 -0.000007 -0.000012 -0.156192 0.427299 20.079200 40.985400 -0.000006 -0.000013 -5.872410 2.907050 -63.612200 11.754300 -0.000000 0.000003 -0.000052 -0.000590 -16.600500 -2.192510 6.469440 -0.000001 175.299000 20.128900 178.990000 -39.081100 -0.002282 -0.040193 0.039982 -0.107048 18.903600 -40.985400 0.000008 0.000006 -0.373220 1.264290 -63.343200 -11.754300 -0.000006 -0.000006 -0.005880 -0.069741 -19.411400
0.000000 0.000000 0.000000 0.000000 0.000000 -0.000000 -0.950325 92.246600 -1.274500 87.703900 -0.152683 2.512600 15.735700 0.000005 -0.000001 90.473200 87.262500 -90.196400 8.984550 -0.406207 -0.000000 -2.291170 0.020919 0.553975 16.377300 -0.000001 -0.000001 -4.305510 -3.479990 2.432750 6.456720 -0.000001 -0.000000 -7.392110 -3.352510 0.258405 12.994200 -0.242716 4.980390 -84.163500 -11.312500 -62.475700 5.348090 -0.000007 -0.000001 -54.372900 -52.209600 -93.133100 24.328600 0.000019 0.000005 -3.537670 -3.458570 -45.701900 22.291600 -0.000001 0.000005 17.998100 5.605330 -11.666100 12.994500 -0.242716 -4.980390 92.871400 -6.050290 -64.551200 -5.348130 -0.000001 -0.000004 -55.325700 -48.329400 -103.030000 -24.328900 0.000322 -0.000009 -3.270190 -4.544920 -35.784800 -22.291500 -0.000108 -0.000004 19.757300 5.529280 -7.763630 -2.192480 -6.469440 -0.000000 -169.515000 -13.727200 -2.505160 39.081100 -0.000007 -0.000012 -0.157904 0.431787 20.087600 40.985400 -0.000006 -0.000013 -5.867010 3.025650 -63.583700 11.754300 -0.000000 0.000003 -0.000043 -0.000496 -16.596900 -2.192510 6.469440 -0.000001 175.297000 20.201000 178.964000 -39.081100 -0.002282 -0.040193 0.039569 -0.105761 18.917100 -40.985400 0.000008 0.000006 -0.397716 1.322920 -63.373000 -11.754300 -0.000006 -0.000006 -0.005962 -0.070492 -19.442000
0.000000 0.000000 0.000000 0.000000 0.000000 -0.000000 -0.988383 92.240500 -1.298820 87.679900 -0.110003 2.509620 15.735700 0.000005 -0.000001 90.252100 87.248000 -89.960200 8.984550 -0.406207 -0.000000 -2.261950 -0.001325 0.583797 16.377300 -0.000001 -0.000001 -4.484500 -3.432400 2.313500 6.456720 -0.000001 -0.000000 -7.353340 -3.212050 0.199845 12.994200 -0.242716 4.980390 -84.285900 -11.285700 -62.919400 5.348090 -0.000007 -0.000001 -52.654300 -52.004100 -85.267700 24.328600 0.000019 0.000005 -3.234310 -3.352660 -44.017500 22.291600 -0.000001 0.000005 18.009500 5.603810 -11.572100 12.994500 -0.242716 -4.980390 92.666500 -5.642990 -64.655900 -5.348130 -0.000001 -0.000004 -53.513800 -48.190700 -95.709700 -24.328900 0.000322 -0.000009 -3.055360 -4.404110 -34.793100 -22.291500 -0.000108 -0.000004 19.814100 5.520370 -7.377570 -2.192480 -6.469440 -0.000000 -169.470000 -13.666500 -2.566260 39.081100 -0.000007 -0.000012 -0.158429 0.432009 20.139500 40.985400 -0.000006 -0.000013 -5.894100 3.027700 -63.581100 11.754300 -0.000000 0.000003 -0.000038 -0.000445 -16.594900 -2.192510 6.469440 -0.000001 175.346000 20.254700 178.953000 -39.081100 -0.002282 -0.040193 0.039620 -0.105840 18.928600 -40.985400 0.000008 0.000006 -0.394921 1.336420 -63.412700 -11.754300 -0.000006 -0.000006 -0.005992 -0.070761 -19.452900
0.000000 0.000000 0.000000 0.000000 0.000000 -0.000000 -0.992792 92.233700 -1.309650 87.686300 -0.110130 2.518690 15.735700 0.000005 -0.000001 90.147700 87.225400 -89.868700 8.984550 -0.406207 -0.000000 -2.216670 -0.010001 0.557828 16.377300 -0.000001 -0.000001 -4.699950 -3.434540 2.379000 6.456720 -0.000001 -0.000000 -7.260140 -3.114460 0.179560 12.994200 -0.242716 4.980390 -84.399300 -11.337900 -63.489600 5.348090 -0.000007 -0.000001 -52.142900 -51.681800 -78.002900 24.328600 0.000019 0.000005 -2.930690 -3.248370 -42.097200 22.291600 -0.000001 0.000005 17.897200 5.592890 -10.926500 12.994500 -0.242716 -4.980390 92.498000 -5.316790 -64.788300 -5.348130 -0.000001 -0.000004 -52.390800 -47.722700 -88.452300 -24.328900 0.000322 -0.000009 -2.865950 -4.290040 -33.781400 -22.291500 -0.000108 -0.000004 19.947600 5.508810 -6.892480 -2.192480 -6.469440 -0.000000 -169.468000 -13.680800 -2.586760 39.081100 -0.000007 -0.000012 -0.160453 0.436380 20.188300 40.985400 -0.000006 -0.000013 -5.892710 3.047620 -63.597500 11.754300 -0.000000 0.000003 -0.000039 -0.000456 -16.595300 -2.192510 6.469440 -0.000001 175.347000 20.217900 178.949000 -39.081100 -0.002282 -0.040193 0.040558 -0.108419 18.954100 -40.985400 0.000008 0.000006 -0.308707 1.312350 -63.477700 -11.754300 -0.000006 -0.000006 -0.006040 -0.071200 -19.470900
